<?xml version="1.0" encoding="UTF-8"?>
<svg version="1.1" xmlns="http://www.w3.org/2000/svg" width="400" height="400">
<path d="M0 0 C1.01173366 0.91013968 2.02345259 1.82029573 3.03515625 2.73046875 C4.02644531 3.60058594 5.01773437 4.47070312 6.0390625 5.3671875 C11.46250037 10.18556156 16.4759578 15.08858483 21.03515625 20.73046875 C21.78152344 21.62765625 22.52789062 22.52484375 23.296875 23.44921875 C52.70589113 60.01427491 64.834347 106.77204045 60.01733398 153.11987305 C57.46999856 175.05861717 50.82265103 196.44782183 40.03515625 215.73046875 C39.68195313 216.36678223 39.32875 217.0030957 38.96484375 217.65869141 C16.72470253 257.28894305 -19.594196 285.42898085 -62.77734375 298.91796875 C-63.52226074 299.15612305 -64.26717773 299.39427734 -65.03466797 299.63964844 C-80.11632922 304.15686099 -95.36472979 305.31379709 -111.02734375 305.23046875 C-111.91948578 305.22870636 -112.81162781 305.22694397 -113.73080444 305.22512817 C-128.63453406 305.1597675 -142.59205408 303.96765546 -156.96484375 299.73046875 C-157.85880859 299.46814453 -158.75277344 299.20582031 -159.67382812 298.93554688 C-171.35189312 295.38874928 -182.27341315 290.58846331 -192.96484375 284.73046875 C-194.04378906 284.14265625 -195.12273437 283.55484375 -196.234375 282.94921875 C-224.11729333 267.20020198 -246.58902868 243.69320345 -261.96484375 215.73046875 C-262.30322266 215.13008789 -262.64160156 214.52970703 -262.99023438 213.91113281 C-284.31469655 175.72689031 -289.01762432 127.64354424 -277.15234375 85.73046875 C-269.70599399 60.80088329 -258.07618049 38.36831159 -240.96484375 18.73046875 C-239.71960938 17.28414062 -239.71960938 17.28414062 -238.44921875 15.80859375 C-212.86004347 -13.35557471 -177.60930197 -30.6731511 -139.96484375 -38.26953125 C-138.75183594 -38.51703125 -137.53882813 -38.76453125 -136.2890625 -39.01953125 C-88.96132602 -46.88019336 -35.92281228 -31.84514844 0 0 Z " fill="#070707" transform="translate(360.96484375,117.26953125)"/>
<path d="M0 0 C6.8990625 -0.12375 6.8990625 -0.12375 13.9375 -0.25 C16.08560181 -0.30462402 16.08560181 -0.30462402 18.27709961 -0.36035156 C26.38612554 -0.43048612 33.54098112 -0.16158111 39.70922852 5.59521484 C41.63545459 9.18389023 41.42809792 12.73708106 41.3984375 16.7109375 C41.40130768 17.55669342 41.40417786 18.40244934 41.40713501 19.27383423 C41.40917384 21.06081818 41.4036566 22.84782454 41.39111328 24.63476562 C41.37509652 27.35858613 41.390947 30.08091387 41.41015625 32.8046875 C41.408173 34.54427409 41.40432765 36.28385975 41.3984375 38.0234375 C41.40754654 39.23777969 41.40754654 39.23777969 41.4168396 40.47665405 C41.35650837 45.37286427 40.71509658 48.7623739 38 53 C35.4375 54.8125 35.4375 54.8125 33 56 C32.01 56.495 32.01 56.495 31 57 C28.67583704 57.08586809 26.34916693 57.10711043 24.0234375 57.09765625 C22.76966309 57.09515869 21.51588867 57.09266113 20.22412109 57.09008789 C18.62391113 57.08098389 17.02370117 57.07187988 15.375 57.0625 C10.30125 57.041875 5.2275 57.02125 0 57 C0 38.19 0 19.38 0 0 Z " fill="#D2D1D6" transform="translate(260,299)"/>
<path d="M0 0 C31.4 0 31.4 0 38 5.5 C40.69764133 9.16108466 40.69268627 13.00994627 40.5 17.4296875 C39.7690511 21.1872217 38.09588774 22.86236323 35 25 C34.34 25 33.68 25 33 25 C33 25.66 33 26.32 33 27 C33.5775 27.0825 34.155 27.165 34.75 27.25 C37.84160617 28.28053539 39.01132814 29.39500422 41 32 C41.4017757 34.94832459 41.56053833 37.43889104 41.5 40.375 C41.51546875 41.1175 41.5309375 41.86 41.546875 42.625 C41.5102501 47.8074228 40.59896588 51.02914098 37 55 C32.45491983 56.94494069 28.5453631 57.23591209 23.6328125 57.1953125 C21.76713623 57.18781982 21.76713623 57.18781982 19.86376953 57.18017578 C18.29997559 57.16196777 16.73618164 57.14375977 15.125 57.125 C10.13375 57.08375 5.1425 57.0425 0 57 C0 38.19 0 19.38 0 0 Z " fill="#DCDBE1" transform="translate(153,160)"/>
<path d="M0 0 C4.11170268 3.26392894 5.75368696 6.0998073 6.515625 11.203125 C6.70879808 15.47241235 6.70143708 19.73979908 6.70092773 24.01318359 C6.70311102 26.06499074 6.72128717 28.11625673 6.74023438 30.16796875 C6.74216797 31.47636719 6.74410156 32.78476563 6.74609375 34.1328125 C6.75020264 35.32116699 6.75431152 36.50952148 6.75854492 37.73388672 C6.44517879 42.20919598 5.81793158 46.5090956 3.03515625 50.12890625 C-4.16838002 55.98074921 -11.36276825 57.02997568 -20.484375 56.203125 C-26.71353041 54.9488619 -29.9171819 52.39176951 -33.484375 47.203125 C-34.73287553 43.45762341 -34.68544132 39.93186734 -34.72265625 36.02734375 C-34.730728 35.22456497 -34.73879974 34.42178619 -34.74711609 33.59468079 C-34.7609395 31.89590605 -34.77166945 30.19710375 -34.77954102 28.49829102 C-34.79674335 25.91042992 -34.84064192 23.32385041 -34.88476562 20.73632812 C-34.89489422 19.0833427 -34.90340981 17.43034644 -34.91015625 15.77734375 C-34.92766434 15.00839279 -34.94517242 14.23944183 -34.96321106 13.44718933 C-34.94239263 8.24799243 -33.90070986 5.33774006 -30.484375 1.203125 C-22.44459327 -4.62571676 -8.49404587 -5.24415006 0 0 Z " fill="#DBDAE0" transform="translate(234.484375,161.796875)"/>
<path d="M0 0 C4.6934939 3.56124898 6.17393522 6.97987565 7.01953125 12.8125 C7.28960262 16.9419554 7.2991518 21.05049678 7.26953125 25.1875 C7.28113281 26.79625 7.28113281 26.79625 7.29296875 28.4375 C7.25292207 44.8966842 7.25292207 44.8966842 2.76953125 50.75 C-2.63087219 54.80030258 -7.12160054 56.35038658 -13.85546875 56.25 C-14.56219727 56.24242676 -15.26892578 56.23485352 -15.99707031 56.22705078 C-21.29492688 56.05958277 -25.99117254 55.50556134 -29.98046875 51.8125 C-34.06501475 46.78495706 -34.59619046 43.15679 -34.58203125 36.94140625 C-34.5906015 36.1008519 -34.59917175 35.26029755 -34.60800171 34.39427185 C-34.61944413 32.62348012 -34.62052133 30.85259442 -34.61181641 29.08178711 C-34.60549352 26.38556255 -34.65245335 23.69372962 -34.703125 20.99804688 C-34.70767173 19.27083883 -34.70907762 17.54361907 -34.70703125 15.81640625 C-34.72545074 15.01828018 -34.74387024 14.22015411 -34.7628479 13.39784241 C-34.67435268 7.99251544 -33.30608069 5.17254818 -29.63363647 1.21641541 C-21.92159514 -5.33286176 -8.44543502 -5.06392948 0 0 Z " fill="#D6D5DB" transform="translate(329.98046875,231.1875)"/>
<path d="M0 0 C0.74185547 -0.00322266 1.48371094 -0.00644531 2.24804688 -0.00976562 C9.04475504 0.05680943 13.29429434 1.72531657 18.4375 6.3125 C21.04611156 10.22541733 20.77959873 13.59933689 20.80859375 18.14453125 C20.82213646 19.44858162 20.82213646 19.44858162 20.83595276 20.77897644 C20.85046008 22.61897334 20.8593432 24.45902188 20.86303711 26.29907227 C20.87491352 29.10457166 20.92407489 31.90785682 20.97460938 34.71289062 C20.98407626 36.50259346 20.99131003 38.29230977 20.99609375 40.08203125 C21.01562607 40.91660355 21.03515839 41.75117584 21.05528259 42.61103821 C21.02309227 46.79890081 20.73279179 49.48213666 18.04785156 52.7980957 C13.09044941 57.57328134 7.21696229 59.50488297 0.375 59.75 C-6.36307681 59.41150949 -11.90167468 58.29598157 -16.65258789 53.30517578 C-20.22469055 49.04003194 -20.42513548 45.50466635 -20.32421875 40.08984375 C-20.32758743 39.22613663 -20.33095612 38.3624295 -20.33442688 37.47254944 C-20.33412934 35.65636202 -20.31900379 33.84012247 -20.28979492 32.02416992 C-20.25004992 29.25348013 -20.26912784 26.48756782 -20.29492188 23.71679688 C-20.28736337 21.94529405 -20.27641051 20.17380178 -20.26171875 18.40234375 C-20.26870285 17.58031967 -20.27568695 16.75829559 -20.28288269 15.91136169 C-20.13908991 10.02150112 -18.80506168 7.42272778 -14.5625 3.3125 C-9.72376615 0.0798719 -5.62129453 -0.12273569 0 0 Z " fill="#D8D7DD" transform="translate(232.5625,297.6875)"/>
<path d="M0 0 C28 0 28 0 37 4 C40.31986234 8.22527935 40.44968128 12.45258571 40.30078125 17.65625 C39.85185389 21.15438527 38.46750061 23.53249939 36 26 C34.33382885 26.04063832 32.66611905 26.042721 31 26 C31 26.66 31 27.32 31 28 C31.7425 28.0825 32.485 28.165 33.25 28.25 C36.63960113 29.17443667 37.81016066 30.27453312 40 33 C40.45410156 35.65722656 40.45410156 35.65722656 40.390625 38.640625 C40.37773437 39.71054688 40.36484375 40.78046875 40.3515625 41.8828125 C40.31804687 42.99398437 40.28453125 44.10515625 40.25 45.25 C40.23195313 46.37664062 40.21390625 47.50328125 40.1953125 48.6640625 C40.14821065 51.44307179 40.07646852 54.22164369 40 57 C34.39 57 28.78 57 23 57 C22.505 44.625 22.505 44.625 22 32 C20.68 31.67 19.36 31.34 18 31 C18 39.58 18 48.16 18 57 C12.06 57 6.12 57 0 57 C0 38.19 0 19.38 0 0 Z " fill="#D6D5DB" transform="translate(247,160)"/>
<path d="M0 0 C4.95 0 9.9 0 15 0 C15.40992188 1.18078125 15.81984375 2.3615625 16.2421875 3.578125 C16.78631853 5.13546552 17.3305971 6.6927545 17.875 8.25 C18.14441406 9.02730469 18.41382813 9.80460938 18.69140625 10.60546875 C18.95566406 11.35957031 19.21992188 12.11367187 19.4921875 12.890625 C19.85352783 13.92751465 19.85352783 13.92751465 20.22216797 14.98535156 C21.0175716 17.04551187 22.01238394 19.02476788 23 21 C23.33 14.07 23.66 7.14 24 0 C28.95 0 33.9 0 39 0 C39 18.81 39 37.62 39 57 C33.72 57 28.44 57 23 57 C20.36 49.08 17.72 41.16 15 33 C14.67 40.59 14.34 48.18 14 56 C9.38 56 4.76 56 0 56 C0 37.52 0 19.04 0 0 Z " fill="#D5D4DA" transform="translate(294,160)"/>
<path d="M0 0 C4.11642974 2.98642942 6.57326246 5.46978738 8.1875 10.3125 C8.32340447 14.98217754 8.23036807 19.63987985 8.1875 24.3125 C2.2475 24.3125 -3.6925 24.3125 -9.8125 24.3125 C-10.1425 19.0325 -10.4725 13.7525 -10.8125 8.3125 C-12.1325 8.3125 -13.4525 8.3125 -14.8125 8.3125 C-14.8125 20.8525 -14.8125 33.3925 -14.8125 46.3125 C-13.4925 46.3125 -12.1725 46.3125 -10.8125 46.3125 C-10.4825 42.0225 -10.1525 37.7325 -9.8125 33.3125 C-4.2025 33.3125 1.4075 33.3125 7.1875 33.3125 C7.67122093 45.16366279 7.67122093 45.16366279 5.6875 49.875 C0.35647679 55.07274763 -6.1132216 57.41976032 -13.5 57.5625 C-19.86113658 57.47793541 -25.48153281 56.46416203 -30.25 52.0625 C-33.44168856 46.44512814 -34.12788068 40.76393563 -34.1484375 34.40234375 C-34.1550943 33.6718129 -34.1617511 32.94128204 -34.16860962 32.18861389 C-34.17866957 30.65498347 -34.18342872 29.12130986 -34.18310547 27.58764648 C-34.18749556 25.25235943 -34.22392756 22.91894015 -34.26171875 20.58398438 C-34.26758521 19.08594389 -34.27155575 17.58789454 -34.2734375 16.08984375 C-34.28780853 15.39906235 -34.30217957 14.70828094 -34.31698608 13.99656677 C-34.2700484 8.97988127 -32.95725243 6.1700394 -29.8125 2.3125 C-22.09258118 -3.43959638 -8.78801647 -4.05473453 0 0 Z " fill="#D6D5DB" transform="translate(198.8125,299.6875)"/>
<path d="M0 0 C9.57 0 19.14 0 29 0 C29 3.63 29 7.26 29 11 C25.04 11 21.08 11 17 11 C17 14.63 17 18.26 17 22 C20.63 22 24.26 22 28 22 C28 25.63 28 29.26 28 33 C24.37 33 20.74 33 17 33 C17 36.96 17 40.92 17 45 C21.29 45 25.58 45 30 45 C30 48.63 30 52.26 30 56 C20.1 56 10.2 56 0 56 C0 37.52 0 19.04 0 0 Z " fill="#D5D4DA" transform="translate(308,299)"/>
<path d="M0 0 C12.87 0 25.74 0 39 0 C39 3.96 39 7.92 39 12 C35.7 12 32.4 12 29 12 C29 26.85 29 41.7 29 57 C23.06 57 17.12 57 11 57 C11 42.15 11 27.3 11 12 C7.37 12 3.74 12 0 12 C0 8.04 0 4.08 0 0 Z " fill="#D2D1D7" transform="translate(253,229)"/>
<path d="M0 0 C4.29 0 8.58 0 13 0 C13 18.15 13 36.3 13 55 C8.05 55 3.1 55 -2 55 C-5.7109375 44.6484375 -5.7109375 44.6484375 -7 41 C-7.38800781 39.94425781 -7.77601563 38.88851562 -8.17578125 37.80078125 C-9.38532686 33.69061917 -8.89127001 31.18211313 -8 27 C-6.75 25.0625 -6.75 25.0625 -5 24 C-3.35 23.67 -1.7 23.34 0 23 C0 15.41 0 7.82 0 0 Z " fill="#DBDAE0" transform="translate(319,161)"/>
<path d="M0 0 C0.99 0.33 1.98 0.66 3 1 C2.34 1.66 1.68 2.32 1 3 C0.71125 3.66 0.4225 4.32 0.125 5 C-1.2521291 7.44822951 -2.40465658 8.02674622 -5 9 C-5.66 9 -6.32 9 -7 9 C-7.474375 9.66 -7.94875 10.32 -8.4375 11 C-8.953125 11.66 -9.46875 12.32 -10 13 C-10.99 13 -11.98 13 -13 13 C-13.33 13.99 -13.66 14.98 -14 16 C-15.98246398 17.03432904 -17.98413316 18.03238392 -20 19 C-21.01801357 19.98165594 -22.0246803 20.97591432 -23 22 C-23.66 22 -24.32 22 -25 22 C-25 22.66 -25 23.32 -25 24 C-26.25161725 25.12936626 -27.55218474 26.20492887 -28.875 27.25 C-32.38358248 30.20687958 -34.09628813 32.36847664 -35 37 C-35.99 37 -36.98 37 -38 37 C-39.38956597 38.5413408 -39.38956597 38.5413408 -40.5625 40.5 C-41.81640625 42.46875 -41.81640625 42.46875 -43 44 C-43.66 44 -44.32 44 -45 44 C-44.34 45.65 -43.68 47.3 -43 49 C-43.99 49.33 -44.98 49.66 -46 50 C-46.33 49.67 -46.66 49.34 -47 49 C-49.29379749 52.44069624 -50 53.72290301 -50 58 C-50.804375 58.12375 -51.60875 58.2475 -52.4375 58.375 C-53.283125 58.58125 -54.12875 58.7875 -55 59 C-55.33 59.66 -55.66 60.32 -56 61 C-56.66 61 -57.32 61 -58 61 C-57.67 63.97 -57.34 66.94 -57 70 C-58.98 70.495 -58.98 70.495 -61 71 C-63.25619542 73.91216721 -63.25619542 73.91216721 -63.5 77.625 C-63.7475 79.295625 -63.7475 79.295625 -64 81 C-64.99 81.495 -64.99 81.495 -66 82 C-65.67 82.33 -65.34 82.66 -65 83 C-64.67 83.66 -64.34 84.32 -64 85 C-64.99 85.99 -64.99 85.99 -66 87 C-66.66 86.67 -67.32 86.34 -68 86 C-68.103125 86.886875 -68.20625 87.77375 -68.3125 88.6875 C-69.0219793 92.10590025 -70.22494675 94.04157792 -72 97 C-73.10857268 101.10833475 -73.10857268 101.10833475 -72 105 C-73.485 105.495 -73.485 105.495 -75 106 C-75.495 106.99 -75.495 106.99 -76 108 C-74.68 108.33 -73.36 108.66 -72 109 C-72.99 109.495 -72.99 109.495 -74 110 C-74.66 109.67 -75.32 109.34 -76 109 C-76.15149298 112.62885324 -76.15149298 112.62885324 -75 116 C-75.66 116 -76.32 116 -77 116 C-77.12375 117.299375 -77.2475 118.59875 -77.375 119.9375 C-77.5859375 122.15234375 -77.5859375 122.15234375 -78 124 C-78.99 124.495 -78.99 124.495 -80 125 C-79.87844821 92.24179343 -61.02948465 58.13450923 -40 34 C-38.75476563 32.55367187 -38.75476563 32.55367187 -37.484375 31.078125 C-28.41184165 20.73809302 -18.17320078 11.93343235 -6.8125 4.1875 C-6.17666992 3.74841309 -5.54083984 3.30932617 -4.88574219 2.85693359 C-3.08203125 1.66796875 -3.08203125 1.66796875 0 0 Z " fill="#2C2829" transform="translate(160,102)"/>
<path d="M0 0 C1.67542976 0.28604898 3.34385343 0.61781233 5 1 C5.02467917 6.23274388 5.04285003 11.46545403 5.05493164 16.69824219 C5.05996711 18.47917267 5.06679581 20.260099 5.07543945 22.04101562 C5.08753942 24.59766665 5.09323609 27.15426312 5.09765625 29.7109375 C5.10281754 30.50994476 5.10797882 31.30895203 5.11329651 32.13217163 C5.11387171 37.77225659 5.11387171 37.77225659 4 40 C2.35 39.67 0.7 39.34 -1 39 C-1.02464849 33.60653012 -1.04283531 28.21309275 -1.05493164 22.81958008 C-1.05997231 20.98331125 -1.06680477 19.14704646 -1.07543945 17.31079102 C-1.08751672 14.67723599 -1.09323081 12.04373384 -1.09765625 9.41015625 C-1.10281754 8.58411392 -1.10797882 7.75807159 -1.11329651 6.90699768 C-1.11349205 4.93763632 -1.06204152 2.96838386 -1 1 C-0.67 0.67 -0.34 0.34 0 0 Z " fill="#141416" transform="translate(231,307)"/>
<path d="M0 0 C1.67542976 0.28604898 3.34385343 0.61781233 5 1 C5.02467917 6.23274388 5.04285003 11.46545403 5.05493164 16.69824219 C5.05996711 18.47917267 5.06679581 20.260099 5.07543945 22.04101562 C5.08753942 24.59766665 5.09323609 27.15426312 5.09765625 29.7109375 C5.10281754 30.50994476 5.10797882 31.30895203 5.11329651 32.13217163 C5.11387171 37.77225659 5.11387171 37.77225659 4 40 C2.68 40 1.36 40 0 40 C-1.6082664 36.78346721 -1.14179685 33.27848471 -1.1328125 29.74609375 C-1.13376923 28.93004166 -1.13472595 28.11398956 -1.13571167 27.27320862 C-1.13639256 25.54745405 -1.13454461 23.82169692 -1.13037109 22.09594727 C-1.12501468 19.44476617 -1.13032267 16.79375397 -1.13671875 14.14257812 C-1.13605809 12.46874962 -1.13477717 10.79492123 -1.1328125 9.12109375 C-1.13483673 8.32319931 -1.13686096 7.52530487 -1.13894653 6.70323181 C-1.11495544 1.11495544 -1.11495544 1.11495544 0 0 Z " fill="#151517" transform="translate(314,238)"/>
<path d="M0 0 C1.32 0.33 2.64 0.66 4 1 C4 13.54 4 26.08 4 39 C1.525 39.495 1.525 39.495 -1 40 C-3.01554229 37.98445771 -2.1639879 33.89761125 -2.16796875 31.1328125 C-2.17129715 30.34228485 -2.17462555 29.5517572 -2.17805481 28.73727417 C-2.18312785 27.06102075 -2.18546302 25.38475719 -2.18530273 23.70849609 C-2.18748492 21.14273392 -2.20562439 18.57740451 -2.22460938 16.01171875 C-2.22754407 14.38541814 -2.22952836 12.75911548 -2.23046875 11.1328125 C-2.23765427 10.36397736 -2.24483978 9.59514221 -2.25224304 8.80300903 C-2.23591079 4.99526776 -2.16425612 3.24638418 0 0 Z " fill="#19181D" transform="translate(219,168)"/>
<path d="M0 0 C1.65 0 3.3 0 5 0 C5 11.55 5 23.1 5 35 C3.35 35.66 1.7 36.32 0 37 C0 24.79 0 12.58 0 0 Z " fill="#040405" transform="translate(278,309)"/>
<path d="M0 0 C0.99 0.495 0.99 0.495 2 1 C2.625 3.5625 2.625 3.5625 3 6 C3.99 6.33 4.98 6.66 6 7 C6.22786458 8.98567708 6.45572917 10.97135417 6.68359375 12.95703125 C6.97170735 15.19396393 6.97170735 15.19396393 8 18 C7.67 18.99 7.34 19.98 7 21 C7.519748 27.49684996 9.64442482 31.30938057 14 36 C15 39 15 39 15 42 C15.31421071 44.00309329 15.6451046 46.00371336 16 48 C15.01 48.495 15.01 48.495 14 49 C9.91470096 40.50018368 6.86684451 31.84943342 4.1875 22.8125 C3.88577881 21.81605469 3.58405762 20.81960938 3.27319336 19.79296875 C1.36772642 13.19590822 0.36735678 6.85536502 0 0 Z " fill="#262022" transform="translate(80,274)"/>
<path d="M0 0 C2.31 0.33 4.62 0.66 7 1 C7 2.65 7 4.3 7 6 C7.99 6.33 8.98 6.66 10 7 C10 7.66 10 8.32 10 9 C10.99 9 11.98 9 13 9 C13.2784375 10.1446875 13.2784375 10.1446875 13.5625 11.3125 C15.56491617 15.05614763 18.15476604 15.46190642 22 17 C22.33 17.99 22.66 18.98 23 20 C21.5625 22.1875 21.5625 22.1875 20 24 C5.13356562 9.57955865 5.13356562 9.57955865 0 2 C0 1.34 0 0.68 0 0 Z " fill="#171313" transform="translate(113,353)"/>
<path d="M0 0 C0.33 0 0.66 0 1 0 C1 18.48 1 36.96 1 56 C5.62 56 10.24 56 15 56 C15 48.08 15 40.16 15 32 C15.66 32.33 16.32 32.66 17 33 C17.6875 35.5 17.6875 35.5 18 38 C17.67 38.33 17.34 38.66 17 39 C16.84417697 40.34015221 16.74955858 41.68758903 16.68359375 43.03515625 C16.64169922 43.84404297 16.59980469 44.65292969 16.55664062 45.48632812 C16.51732422 46.33646484 16.47800781 47.18660156 16.4375 48.0625 C16.39431641 48.91650391 16.35113281 49.77050781 16.30664062 50.65039062 C16.20023298 52.76672037 16.09958269 54.88333813 16 57 C10.72 57 5.44 57 0 57 C0 38.19 0 19.38 0 0 Z " fill="#565658" transform="translate(293,160)"/>
<path d="M0 0 C-1.28062485 1.7074998 -2.61767557 3.37373596 -4 5 C-4.66 5 -5.32 5 -6 5 C-6.33 5.99 -6.66 6.98 -7 8 C-7.33 7.34 -7.66 6.68 -8 6 C-10.02463255 5.34786708 -10.02463255 5.34786708 -12 5 C-12 5.66 -12 6.32 -12 7 C-13.175625 7.2165625 -13.175625 7.2165625 -14.375 7.4375 C-16.96421018 7.87798925 -16.96421018 7.87798925 -19 9 C-20.13350534 11.01669827 -20.13350534 11.01669827 -21 13 C-21 12.01 -21 11.02 -21 10 C-21.7425 10.53625 -22.485 11.0725 -23.25 11.625 C-24.1575 12.07875 -25.065 12.5325 -26 13 C-28.171875 12.0859375 -28.171875 12.0859375 -30 11 C-26.23054828 9.18461635 -22.45920862 7.37318938 -18.6875 5.5625 C-17.61564453 5.04623047 -16.54378906 4.52996094 -15.43945312 3.99804688 C-14.41142578 3.50498047 -13.38339844 3.01191406 -12.32421875 2.50390625 C-11.37635498 2.04830322 -10.42849121 1.5927002 -9.4519043 1.12329102 C-5.78175796 -0.55811327 -3.85120396 -1.19520123 0 0 Z " fill="#272324" transform="translate(195,88)"/>
<path d="M0 0 C2.475 0.495 2.475 0.495 5 1 C5 5.62 5 10.24 5 15 C3.35 15.33 1.7 15.66 0 16 C0 10.72 0 5.44 0 0 Z " fill="#0E0E11" transform="translate(171,191)"/>
<path d="M0 0 C0.66 0.33 1.32 0.66 2 1 C1.67 12.55 1.34 24.1 1 36 C0.34 35.67 -0.32 35.34 -1 35 C-1.02940464 31.04168267 -1.04693328 27.08339403 -1.0625 23.125 C-1.07087891 22.01640625 -1.07925781 20.9078125 -1.08789062 19.765625 C-1.10746751 13.10948511 -0.82879778 6.6060883 0 0 Z " fill="#2D2528" transform="translate(79,227)"/>
<path d="M0 0 C-1.91812834 1.91812834 -3.74463005 3.49642003 -6 5 C-6.99 5 -7.98 5 -9 5 C-12.09638123 5.3143103 -15.19121382 5.63904151 -18.28515625 5.9765625 C-19.62900391 5.98816406 -19.62900391 5.98816406 -21 6 C-21.66 5.34 -22.32 4.68 -23 4 C-20.29592085 3.12975626 -17.58812663 2.2786585 -14.875 1.4375 C-14.11445313 1.19064453 -13.35390625 0.94378906 -12.5703125 0.68945312 C-7.99749943 -0.70998536 -4.75686477 -1.26900386 0 0 Z " fill="#242121" transform="translate(217,82)"/>
<path d="M0 0 C0.33 0 0.66 0 1 0 C1 9.24 1 18.48 1 28 C-0.32 27.34 -1.64 26.68 -3 26 C-3.33 28.31 -3.66 30.62 -4 33 C-4.33 33 -4.66 33 -5 33 C-5 28.71 -5 24.42 -5 20 C-3.68 20 -2.36 20 -1 20 C-0.67 13.4 -0.34 6.8 0 0 Z " fill="#1E1D21" transform="translate(199,173)"/>
<path d="M0 0 C2.475 0.495 2.475 0.495 5 1 C5 4.3 5 7.6 5 11 C3.35 11.33 1.7 11.66 0 12 C0 8.04 0 4.08 0 0 Z " fill="#19181B" transform="translate(265,170)"/>
<path d="M0 0 C2.475 0.495 2.475 0.495 5 1 C5 4.3 5 7.6 5 11 C3.35 11.33 1.7 11.66 0 12 C0 8.04 0 4.08 0 0 Z " fill="#0C0B11" transform="translate(171,170)"/>
<path d="M0 0 C2.475 0.99 2.475 0.99 5 2 C5 2.99 5 3.98 5 5 C5.99 5.33 6.98 5.66 8 6 C7.67 6.99 7.34 7.98 7 9 C6.01 9.33 5.02 9.66 4 10 C3.13619741 8.71475739 2.28419631 7.42157581 1.4375 6.125 C0.96183594 5.40570313 0.48617187 4.68640625 -0.00390625 3.9453125 C-0.33261719 3.30335938 -0.66132812 2.66140625 -1 2 C-0.67 1.34 -0.34 0.68 0 0 Z " fill="#1E1A1B" transform="translate(103,336)"/>
<path d="M0 0 C0.99 0.495 0.99 0.495 2 1 C2.625 3.5625 2.625 3.5625 3 6 C3.99 6.33 4.98 6.66 6 7 C6 8.98 6 10.96 6 13 C4.02 13.99 4.02 13.99 2 15 C1.66048381 13.43883181 1.32867456 11.87598662 1 10.3125 C0.814375 9.44238281 0.62875 8.57226562 0.4375 7.67578125 C0.01027953 5.06287036 -0.07616201 2.64186962 0 0 Z " fill="#2C2728" transform="translate(80,274)"/>
<path d="M0 0 C2.64752004 2.57784846 4.94432065 4.91648098 7 8 C7 8.99 7 9.98 7 11 C6.01 11.33 5.02 11.66 4 12 C3.13624104 10.38007835 2.28424146 8.75388139 1.4375 7.125 C0.72400391 5.76761719 0.72400391 5.76761719 -0.00390625 4.3828125 C-0.33261719 3.59648437 -0.66132812 2.81015625 -1 2 C-0.67 1.34 -0.34 0.68 0 0 Z " fill="#1D181C" transform="translate(96,323)"/>
<path d="M0 0 C0.66 0 1.32 0 2 0 C1.48164329 4.45786773 0.3590115 7.2255816 -2 11 C-2.71143088 12.98451771 -3.38991336 14.98202112 -4 17 C-5.32976123 14.34047754 -4.81122428 12.95790707 -4.25 10.0625 C-4.09015625 9.18722656 -3.9303125 8.31195313 -3.765625 7.41015625 C-2.93427124 4.79308856 -1.98122102 3.82337649 0 2 C0 1.34 0 0.68 0 0 Z " fill="#282424" transform="translate(90,188)"/>
<path d="M0 0 C0.99 0.495 0.99 0.495 2 1 C2.6875 3.5 2.6875 3.5 3 6 C2.67 6.33 2.34 6.66 2 7 C1.84417697 8.34015221 1.74955858 9.68758903 1.68359375 11.03515625 C1.62075195 12.24848633 1.62075195 12.24848633 1.55664062 13.48632812 C1.51732422 14.33646484 1.47800781 15.18660156 1.4375 16.0625 C1.39431641 16.91650391 1.35113281 17.77050781 1.30664062 18.65039062 C1.20023298 20.76672037 1.09958269 22.88333813 1 25 C0.67 25 0.34 25 0 25 C0 16.75 0 8.5 0 0 Z " fill="#403F44" transform="translate(308,192)"/>
<path d="M0 0 C1.46067199 0.45082469 2.91848032 0.91093537 4.375 1.375 C5.18710937 1.63023438 5.99921875 1.88546875 6.8359375 2.1484375 C9 3 9 3 11 5 C7.25 6.125 7.25 6.125 5 5 C4.34 5.66 3.68 6.32 3 7 C2.67 6.01 2.34 5.02 2 4 C1.34 3.67 0.68 3.34 0 3 C0 2.01 0 1.02 0 0 Z " fill="#0E0B0D" transform="translate(310,88)"/>
<path d="M0 0 C3.32637022 2.69277589 4.58473125 6.03724749 6 10 C5.67 10.99 5.34 11.98 5 13 C1.55834073 8.77614544 0 5.49939416 0 0 Z " fill="#201A1C" transform="translate(90,310)"/>
<path d="M0 0 C0.671875 1.76953125 0.671875 1.76953125 1 4 C-0.109375 5.88671875 -0.109375 5.88671875 -1.75 7.6875 C-2.28109375 8.28949219 -2.8121875 8.89148438 -3.359375 9.51171875 C-5 11 -5 11 -8 12 C-7.34 10.35 -6.68 8.7 -6 7 C-5.34 7 -4.68 7 -4 7 C-3.67 6.01 -3.34 5.02 -3 4 C-2.34 3.67 -1.68 3.34 -1 3 C-0.67 2.01 -0.34 1.02 0 0 Z " fill="#D0CFD3" transform="translate(239,204)"/>
<path d="M0 0 C0.33 0 0.66 0 1 0 C1.08142927 1.7492214 1.13938541 3.49954542 1.1875 5.25 C1.22230469 6.22453125 1.25710937 7.1990625 1.29296875 8.203125 C0.95840784 11.39706651 0.23334367 12.72880304 -2 15 C-2.66 15 -3.32 15 -4 15 C-3.49396008 12.83125748 -3.00016187 11.00032373 -2 9 C-1.34 9 -0.68 9 0 9 C0 6.03 0 3.06 0 0 Z " fill="#B2B1B3" transform="translate(192,169)"/>
<path d="M0 0 C1.32 0 2.64 0 4 0 C3.125 6.75 3.125 6.75 2 9 C1.34 9 0.68 9 0 9 C0 6.03 0 3.06 0 0 Z " fill="#030305" transform="translate(266,171)"/>
<path d="M0 0 C0.33 0 0.66 0 1 0 C1.55353075 10.55808656 1.55353075 10.55808656 -2 15 C-2.33 14.34 -2.66 13.68 -3 13 C-3.66 13 -4.32 13 -5 13 C-4 11 -4 11 -1 9 C-0.42006301 6.80545319 -0.42006301 6.80545319 -0.3125 4.375 C-0.24675781 3.55773437 -0.18101562 2.74046875 -0.11328125 1.8984375 C-0.07589844 1.27195313 -0.03851563 0.64546875 0 0 Z " fill="#B1B0B5" transform="translate(286,170)"/>
<path d="M0 0 C0 0.66 0 1.32 0 2 C-0.66 2 -1.32 2 -2 2 C-2.33 2.66 -2.66 3.32 -3 4 C-3 3.34 -3 2.68 -3 2 C-3.928125 2.20625 -4.85625 2.4125 -5.8125 2.625 C-9 3 -9 3 -12 1 C-7.93631321 0.22596442 -4.13574827 -0.0984702 0 0 Z " fill="#211E1F" transform="translate(227,79)"/>
<path d="M0 0 C0.66 0.99 1.32 1.98 2 3 C1.01 4.485 1.01 4.485 0 6 C-0.38499891 7.65549531 -0.72793135 9.3222433 -1 11 C-1.99 10.67 -2.98 10.34 -4 10 C-2.99806563 6.20696275 -2.18975773 3.28463659 0 0 Z " fill="#383335" transform="translate(97,170)"/>
<path d="M0 0 C0.66 0 1.32 0 2 0 C2.66 1.98 3.32 3.96 4 6 C2.35 6 0.7 6 -1 6 C-1.33 5.01 -1.66 4.02 -2 3 C-1.34 2.01 -0.68 1.02 0 0 Z " fill="#292424" transform="translate(99,166)"/>
<path d="M0 0 C2.25 0.25 2.25 0.25 4 1 C2.25 3.0625 2.25 3.0625 0 5 C-2.25 4.75 -2.25 4.75 -4 4 C-2.25 1.9375 -2.25 1.9375 0 0 Z " fill="#CAC9CE" transform="translate(207,161)"/>
<path d="M0 0 C0.99 0.33 1.98 0.66 3 1 C3.33 2.98 3.66 4.96 4 7 C2.0625 6.25 2.0625 6.25 0 5 C-0.8125 2.9375 -0.8125 2.9375 -1 1 C-0.67 0.67 -0.34 0.34 0 0 Z " fill="#0F0B0C" transform="translate(140,378)"/>
<path d="M0 0 C0.625 1.875 0.625 1.875 1 4 C0.34 4.66 -0.32 5.32 -1 6 C-2.32 4.68 -3.64 3.36 -5 2 C-3.35 1.34 -1.7 0.68 0 0 Z " fill="#111113" transform="translate(251,298)"/>
<path d="M0 0 C2 1 2 1 5 3 C4.34 4.32 3.68 5.64 3 7 C1.68 5.35 0.36 3.7 -1 2 C-0.67 1.34 -0.34 0.68 0 0 Z " fill="#D1D0D5" transform="translate(203,208)"/>
<path d="M0 0 C1.125 3.75 1.125 3.75 0 6 C0.99 6.33 1.98 6.66 3 7 C1.35 8.32 -0.3 9.64 -2 11 C-1.125 3.375 -1.125 3.375 0 0 Z " fill="#383332" transform="translate(85,199)"/>
<path d="M0 0 C3.73487777 0.4979837 5.81237635 0.87491756 9 3 C5.23375329 4.25541557 3.62811066 3.37061958 0 2 C0 1.34 0 0.68 0 0 Z " fill="#120F0E" transform="translate(300,85)"/>
<path d="M0 0 C0.99 0 1.98 0 3 0 C3 0.66 3 1.32 3 2 C3.66 2.33 4.32 2.66 5 3 C5.33 3.99 5.66 4.98 6 6 C5.01 6 4.02 6 3 6 C0 2.66666667 0 2.66666667 0 0 Z " fill="#1E171B" transform="translate(108,346)"/>
<path d="M0 0 C0.99 0 1.98 0 3 0 C3.33 1.65 3.66 3.3 4 5 C1 5 1 5 -0.6875 3.5 C-1.120625 3.005 -1.55375 2.51 -2 2 C-1.34 1.34 -0.68 0.68 0 0 Z " fill="#1F1B1C" transform="translate(123,362)"/>
<path d="M0 0 C0.33 0 0.66 0 1 0 C1.36923077 6.52307692 1.36923077 6.52307692 -0.5 8.9375 C-0.995 9.288125 -1.49 9.63875 -2 10 C-1.54177532 6.53058454 -1.10868317 3.32604951 0 0 Z " fill="#B7B7BB" transform="translate(252,340)"/>
<path d="M0 0 C0.66 0.33 1.32 0.66 2 1 C1.34 2.32 0.68 3.64 0 5 C-0.99 5 -1.98 5 -3 5 C-3 5.66 -3 6.32 -3 7 C-3.66 7 -4.32 7 -5 7 C-3.70700306 4.11562221 -2.34058637 2.12780579 0 0 Z " fill="#BBBABD" transform="translate(302,231)"/>
<path d="M0 0 C0.99 0 1.98 0 3 0 C4.35439668 2.70879335 4.06501451 5.00933268 4 8 C1.53721199 5.53721199 1.00228745 3.29323018 0 0 Z " fill="#1E1D22" transform="translate(314,175)"/>
</svg>
